<svg viewBox="18.426 -301.115 500.032 867.64" preserveAspectRatio="none">
  <path
    d="M 147.491 -42.667 C 147.491 -42.667 71.484 -35.629 36.398 -8.413 C 24.498 0.818 103.26 -17.589 100.514 -5.59 C 99.058 0.772 46.942 3.358 34.826 13.585 C 27.205 20.018 63.558 13.705 60.752 20.917 C 58.202 27.472 45.661 22.516 37.651 30.688 C 33.453 34.972 57.724 26.899 54.654 32.707 C 52.648 36.502 28.989 39.401 23.242 44.965 C 19.682 48.412 36.248 52.173 35.395 55.701 C 33.637 62.974 17.664 69.256 17.853 69.752 C 38.206 123.269 96.679 41.543 93.596 94.569 C 90.916 140.654 15.167 126.148 33.345 149.774 C 49.571 170.862 118.924 142.228 121.603 179.825 C 124.933 226.565 40.523 138.512 68.866 185.634 C 90.356 221.363 154.748 223.234 137.813 249.622 C 135.258 253.603 136.404 259.174 124.703 244.187 C 119.372 237.359 115.686 254.757 109.279 248.524 C 101.88 241.327 102.018 229.663 96.192 225.102 C 91.855 221.706 91.849 228.748 88.315 235.401 C 85.409 240.871 79.042 240.352 80.457 251.218 C 82.282 265.238 32.262 268.976 34.751 278.309 C 41.202 302.496 113.712 266.392 128.972 269.269 C 139.795 271.31 102.114 293.034 107.027 295.265 C 119.19 300.788 162.577 287.405 169.981 294.924 C 185.997 311.189 22.138 359.547 34.597 376.971 C 46.396 393.47 57.321 349.298 95.468 360.808 C 127.088 370.348 23.044 384.962 60.392 405.68 C 70.695 411.395 103.177 362.575 138.114 352.799 C 151.337 349.099 132.561 369.129 145.326 375.124 C 161.202 382.581 167.572 376.237 178.506 379.065 C 210.634 387.374 -13.872 440.84 0.027 461.952 C 15.19 484.985 92.798 427.964 104.373 464.86 C 115.926 501.685 -3.428 478.702 6.559 513.158 C 9.87 524.58 18.393 505.912 20.547 509.886 C 28.772 525.06 5.359 521.197 6.684 528.939 C 7.616 534.384 12.892 539.006 20.336 538.336 C 27.189 537.719 21.356 527.702 29.466 525.916 C 69.961 516.995 94.705 518.599 94.924 527.247 C 96.147 575.41 -8 559.57 13.677 604.7 C 36.883 653.013 84.466 560.438 135.347 577.285 C 197.76 597.95 24.257 615.848 33.765 653.789 C 39.71 677.513 175.691 650.409 197.317 665.529 C 216.689 679.074 114.766 755.796 135.228 767.63 C 159.593 781.721 259.822 699.545 265.884 723.909 C 268.154 733.035 240.48 779.054 257.706 778.58 C 269.195 778.264 261.316 787.395 266.314 794.338 C 268.616 797.535 322.202 782.113 345.111 794.963 C 351.364 798.47 353.414 810.031 356.469 813.228 C 368.969 826.307 376.752 796.36 383.971 796.871 C 388.008 797.157 389.52 817.273 392.38 819.026 C 396.613 821.621 448.167 823.27 458.554 814.285 C 468.101 806.026 499.438 824.973 499.438 824.973"
    transform="matrix(1, 0, 0, 1, 19.019194, -258.447906)"></path>
</svg>